<svg width="100" height="100" xmlns="http://www.w3.org/2000/svg">
 <!-- Created with Method Draw - http://github.com/duopixel/Method-Draw/ -->
 <g>
  <title>background</title>
  <rect fill="#fff" id="canvas_background" height="102" width="102" y="-1" x="-1"/>
  <g display="none" overflow="visible" y="0" x="0" height="100%" width="100%" id="canvasGrid">
   <rect fill="url(#gridpattern)" stroke-width="0" y="0" x="0" height="100%" width="100%"/>
  </g>
 </g>
 <g>
  <title>Layer 1</title>
  <path id="svg_1" d="m28.176709,13.182586l49.511572,0l0,0c6.486157,0 11.744213,3.581723 11.744213,8.000001c0,4.418276 -5.258059,7.999998 -11.744213,7.999998l-49.511572,0l0,0c-6.486149,0 -11.744213,-3.581722 -11.744213,-7.999998c0,-4.418279 5.258064,-8.000001 11.744213,-8.000001z" stroke-width="0" stroke="#000" fill="#003f7f"/>
  <path id="svg_2" d="m27.17671,71.18259l49.51157,0l0,0c6.48616,0 11.74421,3.58172 11.74421,8c0,4.41827 -5.25806,7.99999 -11.74421,7.99999l-49.51157,0l0,0c-6.48615,0 -11.74421,-3.58172 -11.74421,-7.99999c0,-4.41828 5.25806,-8 11.74421,-8z" stroke-width="0" stroke="#000" fill="#444444"/>
  <path stroke="#000" id="svg_3" d="m20.063284,33.18259l23.738419,0l0,0c3.109802,0 5.630784,3.58172 5.630784,8c0,4.41827 -2.520987,7.99999 -5.630784,7.99999l-23.738419,0l0,0c-3.109797,0 -5.630784,-3.58172 -5.630784,-7.99999c0,-4.41828 2.520987,-8 5.630784,-8z" stroke-width="0" fill="#7f0000"/>
  <path stroke="#000" id="svg_4" d="m59.06328,33.18259l23.73842,0l0,0c3.10981,0 5.63079,3.58172 5.63079,8c0,4.41827 -2.52099,7.99999 -5.63079,7.99999l-23.73842,0l0,0c-3.10979,0 -5.63078,-3.58172 -5.63078,-7.99999c0,-4.41828 2.52099,-8 5.63078,-8z" stroke-width="0" fill="#3f7f00"/>
  <path stroke="#000" id="svg_5" d="m20.06328,52.18259l23.73842,0l0,0c3.10981,0 5.63079,3.58172 5.63079,8c0,4.41827 -2.52099,7.99999 -5.63079,7.99999l-23.73842,0l0,0c-3.10979,0 -5.63078,-3.58172 -5.63078,-7.99999c0,-4.41828 2.52099,-8 5.63078,-8z" stroke-width="0" fill="#bfbf00"/>
  <path stroke="#000" id="svg_6" d="m59.06328,52.18259l23.73842,0l0,0c3.10981,0 5.63079,3.58172 5.63079,8c0,4.41827 -2.52099,7.99999 -5.63079,7.99999l-23.73842,0l0,0c-3.10979,0 -5.63078,-3.58172 -5.63078,-7.99999c0,-4.41828 2.52099,-8 5.63078,-8z" stroke-width="0" fill="#ff007f"/>
 </g>
</svg>